# xmcd
#
# Track frame offsets:
#	150
#	8887
#	23760
#	33443
#	49793
#	63383
#	80901
#	91640
#	115690
#	128065
#	138349
#
# Disc length: 2009 seconds
#
# Revision: 1
# Processed by: cddbd v1.5.2PL0 Copyright (c) Steve Scherf et al.
# Submitted via: audiograbber 1.83.01
#
DISCID=8507d70b
DTITLE=Shelby Lynne - Merry Christmas
DYEAR=2010
DGENRE=Country
TTITLE0=Sleigh Ride - Winter Wonderland
TTITLE1=Ain't Nothin' Like Christmas
TTITLE2=Christmas Time Is Here
TTITLE3=Silver Bells
TTITLE4=Christmastime's A-Coming
TTITLE5=O Holy Night
TTITLE6=Santa Clause Is Coming To Town
TTITLE7=Xmas
TTITLE8=Rudolph The Red-Nosed Reindeer
TTITLE9=Silent Night
TTITLE10=White Christmas
EXTD=
EXTT0=
EXTT1=
EXTT2=
EXTT3=
EXTT4=
EXTT5=
EXTT6=
EXTT7=
EXTT8=
EXTT9=
EXTT10=
PLAYORDER=
